<svg viewBox="0 0 28 28" fill="none"><path fill-rule="evenodd" clip-rule="evenodd" d="M16.6516 4.08337H11.3485L10.4205 5.32296L14 9.73037L17.5796 5.32296L16.6516 4.08337ZM9.75756 8.35302H2.33331C3.35472 9.35415 4.53327 10.2964 5.78028 10.9699C6.28041 11.1316 6.71467 11.2438 7.23862 11.2454H9.22725L7.10604 13.8623L10.553 15.5151L11.8788 10.5567L9.75756 8.35302ZM18.2423 8.35302H25.6666C24.6449 9.35281 23.4664 10.2975 22.2196 10.9699C21.7195 11.1316 21.2852 11.2438 20.7613 11.2454H18.7726L20.8938 13.8623L17.4469 15.5151L16.1211 10.5567L18.2423 8.35302ZM16.7839 21.713L14.6627 10.6945C14.5722 11.0076 14.3139 11.2147 13.9999 11.2454C13.6872 11.2132 13.4269 11.0064 13.337 10.6945L11.2158 21.713L13.9999 23.9167L16.7839 21.713Z"></path></svg>