<svg viewBox="0 0 28 28" fill="#A49A7A" xmlns="http://www.w3.org/2000/svg"><path fill-rule="evenodd" clip-rule="evenodd" d="M15 20.1826L2.5 16.6827L11.5 7.18266C10.7 5.98266 8.16667 5.34929 7 5.1826C13.5 4.18262 16.8333 7.51594 18.5 9.6826H19.5V8.1826L26 9.1826L21 13.6826L20.5 12.1826L19 13.1826C20.2 19.5826 15.8333 22.8493 13.5 23.6826L15 20.1826ZM16 11.1826C15.6 9.18262 13.5 8.01595 12.5 7.68262L6 14.6826L16 11.1826ZM7 16.1826L17 13.6826C17.1667 15.016 17.2 17.9826 16 19.1826L7 16.1826Z"></path></svg>