<svg fill="#A49A7A" xmlns="http://www.w3.org/2000/svg" viewBox="0 0 48 48"><path clip-rule="evenodd" d="M5.3371 4.93481H31.1059V9.4325H9.83478V26.8856H5.3371V4.93481ZM37.3333 26.2606V11.5365H41.831V27.4919L41.5262 28.0161C40.0471 30.5594 37.185 34.2465 34.0777 37.3076C32.5181 38.8439 30.8357 40.2836 29.174 41.3544C27.5737 42.3856 25.7098 43.2616 23.8513 43.2616C18.4901 43.2616 14.7314 39.746 12.231 37.4073C11.9944 37.1859 11.769 36.9751 11.5546 36.7788L14.5916 33.4614C14.7873 33.6405 14.9813 33.8193 15.1741 33.9969C17.8801 36.4904 20.3474 38.7639 23.8513 38.7639C24.3982 38.7639 25.3631 38.4594 26.7378 37.5736C28.0511 36.7273 29.49 35.5134 30.9213 34.1034C33.5785 31.4858 35.9994 28.4024 37.3333 26.2606ZM24.2332 17.2215H16.1387V12.7238H24.2332V17.2215ZM32.8079 24.4607L24.2832 34.3313L17.604 30.0808L20.0188 26.2863L23.4194 28.4504L29.404 21.5209L32.8079 24.4607Z" fill-rule="evenodd"></path></svg>