<svg fill="#A49A7A" xmlns="http://www.w3.org/2000/svg" viewBox="0 0 48 48"><path d="M2.41668 17.3596C2.10603 25.4979 8.65503 35.0912 11.9684 38.8705C10.4411 35.6866 7.85254 27.3152 9.71628 19.3011C12.046 9.28352 2.80498 7.18682 2.41668 17.3596Z"></path><path d="M12.8225 12.856C12.8225 15.6516 15.204 17.748 16.4723 18.214C15.2391 16.299 15.4462 12.4913 17.4819 12.2344C20.9386 11.798 20.9671 14.5893 20.7434 16.1948C23.306 15.6512 24.238 10.5255 20.7434 10.2154C15.0146 9.7071 12.8225 9.3615 12.8225 12.856Z"></path><path d="M44.7611 17.3596C45.0718 25.4979 38.5228 35.0912 35.2094 38.8705C36.7367 35.6866 39.3253 27.3152 37.4615 19.3011C35.1318 9.28352 44.3728 7.18682 44.7611 17.3596Z"></path><path d="M34.3553 12.856C34.3553 15.6516 31.9738 17.748 30.7055 18.214C31.9387 16.299 31.7316 12.4913 29.6959 12.2344C26.2392 11.798 26.2107 14.5893 26.4344 16.1948C23.8718 15.6512 22.9398 10.5255 26.4344 10.2154C32.1632 9.7071 34.3553 9.3615 34.3553 12.856Z"></path></svg>