<svg fill="#A49A7A" xmlns="http://www.w3.org/2000/svg" viewBox="0 0 48 48"><path d="M24 31.9815C28.408 31.9815 31.9815 28.408 31.9815 24C31.9815 19.5919 28.408 16.0185 24 16.0185C19.5919 16.0185 16.0185 19.5919 16.0185 24C16.0185 28.408 19.5919 31.9815 24 31.9815Z"></path><path clip-rule="evenodd" d="M41.5593 24C41.5593 33.6977 33.6977 41.5593 24 41.5593C14.3022 41.5593 6.44067 33.6977 6.44067 24C6.44067 14.3022 14.3022 6.44067 24 6.44067C33.6977 6.44067 41.5593 14.3022 41.5593 24ZM36.7704 24C36.7704 31.0529 31.0529 36.7704 24 36.7704C16.9471 36.7704 11.2296 31.0529 11.2296 24C11.2296 16.9471 16.9471 11.2296 24 11.2296C31.0529 11.2296 36.7704 16.9471 36.7704 24Z" fill-rule="evenodd"></path></svg>