<svg fill="#A49A7A" xmlns="http://www.w3.org/2000/svg" viewBox="0 0 48 48"><path d="M27.0094 14.6471C20.5846 13.0409 16.7476 18.9749 15.6322 22.1426C19.8485 18.8632 21.12 21.2727 24.0647 20.135C26.4205 19.2248 27.0094 16.0972 27.0094 14.6471Z"></path><path d="M32.4304 23.0801C30.1281 29.1837 23.7524 30.3525 20.8524 30.174C20.8524 31.4456 22.0169 33.9219 26.6748 33.6542C31.3328 33.3865 32.4527 26.4932 32.4304 23.0801Z"></path><path clip-rule="evenodd" d="M13.6468 16.6781C11.2718 20.2556 11.7125 24.9284 12.4171 28.7455L8.54076 29.461C7.75065 25.1801 7.17732 19.2964 10.3628 14.498C11.995 12.0393 15.0475 9.54472 18.4569 8.52565C21.8287 7.51781 26.0329 7.49618 31.2084 8.71315L30.3061 12.5503C25.5768 11.4382 22.1069 11.5488 19.5858 12.3023C17.1022 13.0447 14.7947 14.949 13.6468 16.6781Z" fill-rule="evenodd"></path><path clip-rule="evenodd" d="M36.8841 25.7017C36.9929 22.8494 36.175 20.1095 35.4065 18.5141L38.9577 16.8035C39.9516 18.8667 40.9607 22.2437 40.823 25.852C40.6832 29.5164 39.2431 33.9603 35.4065 36.9164C31.7174 39.7587 27.7933 40.8478 24.1847 40.8582C20.601 40.8685 17.3173 39.386 15.4217 38.5279L17.0473 34.9369C18.4534 35.5734 21.1807 36.925 24.1734 36.9164C27.1414 36.9079 30.1578 35.9843 33.0007 33.794C35.6959 31.7173 36.7774 28.4978 36.8841 25.7017Z" fill-rule="evenodd"></path></svg>